<?xml version="1.0" encoding="UTF-8" standalone="no"?>
<!-- Created with Inkscape (http://www.inkscape.org/) -->

<svg
   xmlns:dc="http://purl.org/dc/elements/1.1/"
   xmlns:cc="http://creativecommons.org/ns#"
   xmlns:rdf="http://www.w3.org/1999/02/22-rdf-syntax-ns#"
   xmlns:svg="http://www.w3.org/2000/svg"
   xmlns="http://www.w3.org/2000/svg"
   xmlns:sodipodi="http://sodipodi.sourceforge.net/DTD/sodipodi-0.dtd"
   xmlns:inkscape="http://www.inkscape.org/namespaces/inkscape"
   version="1.1"
   id="svg2"
   xml:space="preserve"
   width="930.39111"
   height="175.6898"
   viewBox="0 0 930.3911 175.68981"
   sodipodi:docname="sv-io.svg"
   inkscape:version="0.92.3 (2405546, 2018-03-11)"><metadata
     id="metadata8"><rdf:RDF><cc:Work
         rdf:about=""><dc:format>image/svg+xml</dc:format><dc:type
           rdf:resource="http://purl.org/dc/dcmitype/StillImage" /><dc:title></dc:title></cc:Work></rdf:RDF></metadata><defs
     id="defs6"><clipPath
       clipPathUnits="userSpaceOnUse"
       id="clipPath26"><path
         d="M 0,202.296 H 841.89 V 0 H 0 Z"
         id="path24"
         inkscape:connector-curvature="0" /></clipPath></defs><sodipodi:namedview
     pagecolor="#ffffff"
     bordercolor="#666666"
     borderopacity="1"
     objecttolerance="10"
     gridtolerance="10"
     guidetolerance="10"
     inkscape:pageopacity="0"
     inkscape:pageshadow="2"
     inkscape:window-width="1366"
     inkscape:window-height="700"
     id="namedview4"
     showgrid="false"
     fit-margin-top="0"
     fit-margin-left="0"
     fit-margin-right="0"
     fit-margin-bottom="0"
     inkscape:zoom="0.90510635"
     inkscape:cx="668.1395"
     inkscape:cy="49.423425"
     inkscape:window-x="0"
     inkscape:window-y="0"
     inkscape:window-maximized="1"
     inkscape:current-layer="g10" /><g
     id="g10"
     inkscape:groupmode="layer"
     inkscape:label="Logo"
     transform="matrix(1.3333333,0,0,-1.3333333,-94.640931,246.79706)"><text
       transform="matrix(1,0,0,-1,682.4492,70.3594)"
       style="font-variant:normal;font-weight:normal;font-stretch:normal;font-size:85.39320374px;font-family:Arial;-inkscape-font-specification:ArialMT;writing-mode:lr-tb;fill:#413f4b;fill-opacity:1;fill-rule:nonzero;stroke:none"
       id="text18"><tspan
         x="0 23.739309"
         y="0"
         sodipodi:role="line"
         id="tspan16">IO</tspan></text>
<g
       id="g20"><g
         id="g22"
         clip-path="url(#clipPath26)"><g
           id="g28"
           transform="translate(333.6672,131.0194)"
           style="fill:#1a5da8;fill-opacity:1"><path
             d="m 0,0 c 0.043,2.554 -2.425,5.125 -4.984,5.192 -2.597,0.07 -5.115,-2.348 -5.173,-4.966 -0.06,-2.639 2.293,-5.081 4.959,-5.149 C -2.556,-4.989 -0.045,-2.612 0,0 m 35.73,-59.649 c 1.114,1.661 1.966,2.92 2.806,4.189 15.079,22.778 30.15,45.564 45.243,68.332 2.29,3.454 1.538,3.726 5.419,1.128 0.895,-0.598 1.78,-1.208 2.936,-1.995 -18.906,-28.57 -37.748,-57.042 -56.811,-85.848 -4.512,7.443 -8.781,14.484 -13.052,21.525 -8.471,13.964 -16.956,27.92 -25.4,41.9 -1.05,1.737 -2.166,3.025 -4.311,3.68 -4.04,1.231 -5.919,5.316 -4.625,9.11 1.298,3.809 5.092,5.873 8.828,4.802 4.143,-1.188 6.19,-4.848 5.265,-9.046 -0.225,-1.023 -0.129,-2.396 0.393,-3.263 10.523,-17.495 21.129,-34.94 31.728,-52.389 0.369,-0.606 0.847,-1.145 1.581,-2.125"
             style="fill:#1a5da8;fill-opacity:1;fill-rule:nonzero;stroke:none"
             id="path30"
             inkscape:connector-curvature="0" /></g><g
           id="g32"
           transform="translate(258.6652,72.7597)"><path
             d="m 0,0 h -7.569 c 0,1.172 0.006,2.227 -0.001,3.282 -0.067,9.615 0.036,19.237 -0.268,28.845 -0.18,5.648 -2.856,8.535 -7.664,9.385 -5.194,0.918 -11.099,-1.622 -12.781,-6.111 -1.085,-2.893 -1.549,-6.147 -1.642,-9.259 -0.225,-7.616 -0.074,-15.243 -0.074,-22.865 -0.001,-0.991 0,-1.981 0,-3.22 h -7.76 v 47.364 h 6.778 v -6.15 c 0.722,0.582 1.066,0.79 1.322,1.075 5.778,6.439 14.8,8.148 22.56,4.324 4.321,-2.128 6.858,-5.813 6.984,-10.326 C 0.222,24.302 0,12.244 0,0"
             style="fill:#00435b;fill-opacity:1;fill-rule:nonzero;stroke:none"
             id="path34"
             inkscape:connector-curvature="0" /></g><g
           id="g36"
           transform="translate(195.6681,118.7128)"><path
             d="m 0,0 c -0.882,-2.396 -1.721,-4.67 -2.536,-6.886 -0.32,-0.04 -0.521,-0.129 -0.667,-0.074 -7.849,2.915 -12.667,0.331 -13.712,-7.98 -0.697,-5.547 -0.532,-11.208 -0.643,-16.82 -0.09,-4.62 -0.018,-9.243 -0.018,-14.125 h -7.835 V 1.417 h 7.026 v -6.5 C -10.907,3.543 -7.204,4.558 0,0"
             style="fill:#00435b;fill-opacity:1;fill-rule:nonzero;stroke:none"
             id="path38"
             inkscape:connector-curvature="0" /></g><path
           d="m 200.689,120.243 h 7.576 V 72.769 h -7.576 z"
           style="fill:#00435b;fill-opacity:1;fill-rule:nonzero;stroke:none"
           id="path40"
           inkscape:connector-curvature="0" /><path
           d="m 200.78,138.53 h 7.527 v -8.809 h -7.527 z"
           style="fill:#00435b;fill-opacity:1;fill-rule:nonzero;stroke:none"
           id="path42"
           inkscape:connector-curvature="0" /><g
           id="g44"
           transform="translate(150.8996,86.8065)"><path
             d="m 0,0 c -1.832,-5.374 -6.548,-8.667 -11.688,-8.576 -1.771,0.038 -3.474,0.484 -5.003,1.295 -2.899,1.536 -4.86,4.375 -5.632,7.561 -2.4,10.007 -0.204,17.728 1.219,21.263 0.681,1.687 1.696,3.247 3.096,4.405 1.968,1.628 4.466,2.521 7.516,2.347 5.579,-0.311 8.925,-3.785 10.62,-8.78 C 2.331,13.05 2.194,6.449 0,0 m 6.373,24.473 c -5.73,11.845 -21.906,13.132 -28.696,5.018 -0.091,-0.098 -0.189,-0.22 -0.28,-0.348 -0.696,-0.931 -1.544,-2.551 -1.544,-2.551 v 6.782 h -6.85 V -32.23 h 7.668 v 22.382 c 2.308,-1.475 4.276,-3.126 6.524,-4.102 8.243,-3.566 18.878,0.719 23.17,9.537 4.641,9.538 4.625,19.348 0.008,28.886"
             style="fill:#00435b;fill-opacity:1;fill-rule:nonzero;stroke:none"
             id="path46"
             inkscape:connector-curvature="0" /></g><g
           id="g48"
           transform="translate(289.1408,79.2528)"><path
             d="m 0,0 c -5.291,0.083 -9.046,2.74 -10.938,7.523 -2.574,6.54 -2.687,13.338 -0.212,19.923 1.832,4.86 5.533,7.918 10.9,8.077 4.896,0.146 8.667,-2.129 10.823,-6.2 C 11.179,27.974 15.811,16.857 9.942,4.785 7.746,1.59 4.351,-0.067 0,0 m 20.627,40.92 h -7.153 c -0.077,-1.718 -0.152,-3.292 -0.236,-5.299 -0.673,0.607 -1.059,0.932 -1.423,1.287 -7.872,7.729 -20.861,6.744 -27.537,-2.081 -7.214,-9.546 -6.858,-25.918 0.764,-35.123 6.449,-7.796 18.546,-8.568 25.986,-1.665 0.402,0.371 0.894,0.651 1.696,1.233 -0.174,-3.284 -0.159,-6.1 -0.522,-8.871 -0.477,-3.602 -2.225,-6.615 -5.601,-8.182 -4.482,-2.081 -9.236,-2.324 -13.671,-0.114 -3.437,1.53 -4.989,4.913 -5.42,6.01 h -6.585 c -0.159,-4.746 2.157,-8.78 6.426,-11.172 5.042,-2.816 10.514,-3.331 16.108,-2.513 10.726,1.559 16.236,7.508 16.827,18.326 0.318,5.798 0.303,11.611 0.333,17.417 0.045,10.158 0.008,20.316 0.008,30.747"
             style="fill:#00435b;fill-opacity:1;fill-rule:nonzero;stroke:none"
             id="path50"
             inkscape:connector-curvature="0" /></g><g
           id="g52"
           transform="translate(465.2199,120.0898)"
           style="fill:#1a5da8;fill-opacity:1"><path
             d="m 0,0 -5.296,0.03 c -0.2,0.013 -0.39,0.015 -0.566,0.004 l -1.704,0.01 -0.78,-2.196 c -10e-4,-0.003 -0.002,-0.005 -0.003,-0.007 -3.217,-9.119 -6.485,-18.221 -9.756,-27.321 l -3.346,-8.451 -3.03,7.553 c -3.238,9.282 -6.469,18.566 -9.747,27.835 l 0.001,0.001 -0.882,2.589 -3.328,-0.032 c -1.343,0.015 -2.737,-0.041 -4.245,-0.041 0.481,-1.459 0.752,-2.405 1.1,-3.32 5.248,-13.79 10.607,-27.539 15.682,-41.392 l 0.897,-2.318 4.888,-0.026 c 0.124,-0.005 0.243,-0.005 0.359,-0.002 l 2.082,-0.011 1.1,3.051 c 2.848,7.882 5.914,15.686 8.877,23.526 C -5.178,-13.85 -2.688,-7.171 0,0"
             style="fill:#1a5da8;fill-opacity:1;fill-rule:nonzero;stroke:none"
             id="path54"
             inkscape:connector-curvature="0" /></g><g
           id="g56"
           transform="translate(373.5285,101.2138)"><path
             d="m 0,0 c -2.49,0.001 -4.68,2.173 -4.719,4.683 -0.04,2.55 2.023,4.692 4.585,4.759 C 2.429,9.51 4.617,7.488 4.731,4.95 4.847,2.366 2.585,0 0,0 m 89.53,20.892 1.315,0.016 C 76.707,42.108 62.849,62.89 48.848,83.884 48.109,82.822 47.539,82.033 47.002,81.221 32.324,59.05 17.646,36.88 2.984,14.699 2.116,13.387 1.333,12.437 -0.57,12.341 c -4.5,-0.227 -7.724,-4.377 -7.077,-8.62 0.672,-4.409 4.757,-7.299 9.129,-6.455 4.483,0.864 6.945,5.041 5.908,9.7 -0.217,0.977 -0.028,2.328 0.514,3.151 13.209,20.096 26.491,40.144 39.769,60.194 0.322,0.485 0.763,0.892 1.274,1.481 0.699,-1.011 1.27,-1.813 1.816,-2.631 C 60.988,53.838 71.2,38.506 81.462,23.208 c 0.137,-0.204 0.292,-0.42 0.457,-0.634 h -10e-4 l 0.051,-0.066 c 0.002,-0.002 0.003,-0.004 0.005,-0.006 l 1.309,-1.69 2.636,0.034 c 1.129,-0.031 2.316,0.017 3.611,0.046"
             style="fill:#376a4b;fill-opacity:1;fill-rule:nonzero;stroke:none"
             id="path58"
             inkscape:connector-curvature="0" /></g><g
           id="g60"
           transform="translate(531.7961,133.6005)"
           style="fill:#1a5da8;fill-opacity:1"><path
             d="M 0,0 0.014,0.001 V 4.816 H -7.394 V 2.062 C -7.398,1.925 -7.402,1.787 -7.399,1.635 c 0.216,-9.882 0.079,-19.771 0.079,-29.657 0,-9.795 0.113,-19.593 -0.071,-29.385 -0.003,-0.188 -0.001,-0.363 0.006,-0.53 v -2.614 h 1.952 c 0.445,-0.068 0.966,-0.075 1.564,-0.05 0.47,0.021 0.915,0.026 1.329,0.05 h 2.554 v 5.011 H 0.002 C -0.131,-37.027 -0.123,-18.514 0,0"
             style="fill:#1a5da8;fill-opacity:1;fill-rule:nonzero;stroke:none"
             id="path62"
             inkscape:connector-curvature="0" /></g><g
           id="g64"
           transform="translate(552.3566,138.4169)"
           style="fill:#1a5da8;fill-opacity:1"><path
             d="m 0,0 h -7.204 v -0.629 -3.145 -61.592 h 2.826 c 0.092,0 0.185,0 0.276,-0.001 0.096,0 0.179,0.001 0.271,0.001 H 0 v 5.861 c 0.001,17.746 0,35.492 0,53.238 0,0.663 -0.001,1.243 -0.008,1.781 L 0,-4.484 Z"
             style="fill:#1a5da8;fill-opacity:1;fill-rule:nonzero;stroke:none"
             id="path66"
             inkscape:connector-curvature="0" /></g><g
           id="g68"
           transform="translate(655.3967,120.2118)"
           style="fill:#1a5da8;fill-opacity:1"><path
             d="m 0,0 h -7.506 l -0.939,-2.582 c -0.124,-0.287 -0.242,-0.595 -0.353,-0.924 -3.808,-11.236 -7.794,-22.413 -11.731,-33.605 -0.141,-0.401 -0.443,-0.744 -0.835,-1.388 -0.395,0.799 -0.72,1.314 -0.916,1.875 -3.671,10.5 -7.319,21.008 -11.03,31.493 l 0.01,-0.002 -1.709,5.003 h -2.475 c -1.681,0.095 -3.413,0 -5.301,0 0.313,-1.086 0.481,-1.867 0.762,-2.605 4.96,-13.045 9.76,-26.157 15.003,-39.087 1.749,-4.313 1.759,-8.028 -0.269,-12.112 -2.082,-4.193 -5.244,-6.128 -9.854,-5.426 -0.692,0.104 -1.381,0.233 -2.426,0.411 v -7.078 c 0,0 6.904,-1.239 10.495,0.516 l -0.004,0.005 c 1.993,0.836 3.732,2.3 5.125,4.528 1.29,2.065 2.456,4.258 3.321,6.528 6.377,16.736 12.675,33.501 18.978,50.264 h 10e-4 z"
             style="fill:#1a5da8;fill-opacity:1;fill-rule:nonzero;stroke:none"
             id="path70"
             inkscape:connector-curvature="0" /></g><g
           id="g72"
           transform="translate(499.8391,83.5331)"
           style="fill:#1a5da8;fill-opacity:1"><path
             d="m 0,0 c -4.371,-4.146 -9.733,-5.056 -15.44,-3.695 -3.634,0.866 -5.925,3.825 -6.059,7.161 -0.132,3.291 1.999,6.457 5.673,7.414 4.542,1.183 9.217,1.854 13.821,2.806 1.844,0.38 3.655,0.917 5.751,1.451 C 4.201,9.476 4.347,4.123 0,0 m 12.753,-8.505 c -0.034,0.381 -0.074,0.759 -0.111,1.139 L 11.639,5.253 C 11.41,12.314 11.4,19.385 11.2,26.448 c -0.179,6.279 -2.793,9.85 -8.77,11.587 -7.274,2.114 -14.528,1.797 -21.559,-1.144 -4.846,-2.029 -7.373,-5.893 -8.523,-11.154 l -0.006,-0.006 c 0,0 -0.249,-0.949 -0.249,-1.611 h 7.546 c 0,0 0.209,1.11 0.589,2.371 0.097,0.216 0.189,0.446 0.271,0.704 1.002,3.15 3.435,5.25 6.759,5.597 3.112,0.324 6.369,0.541 9.411,-0.019 C 1.974,31.798 3.862,28.9 3.993,23.572 4.048,21.374 3.173,20.42 1.182,20.084 -2.477,19.466 -6.155,18.933 -9.779,18.15 c -4.217,-0.911 -8.603,-1.544 -12.52,-3.22 -5.21,-2.23 -7.695,-7.743 -6.983,-13.286 0.693,-5.395 4.742,-9.63 10.43,-10.833 7.637,-1.616 14.567,-0.007 20.813,4.652 0.742,0.553 1.542,1.028 2.408,1.601 l 1.786,-5.835 h 1.473 3.369 1.756 l -0.021,0.263 z"
             style="fill:#1a5da8;fill-opacity:1;fill-rule:nonzero;stroke:none"
             id="path74"
             inkscape:connector-curvature="0" /></g><g
           id="g76"
           transform="translate(571.9514,105.6317)"
           style="fill:#1a5da8;fill-opacity:1"><path
             d="m 0,0 c 0.25,0.704 0.492,1.265 0.644,1.598 0.03,0.068 0.06,0.129 0.09,0.189 0.007,0.03 0.023,0.053 0.031,0.067 0.014,0.031 0.03,0.061 0.045,0.091 2.407,4.853 6.979,7.623 12.974,7.502 6.214,-0.129 11.051,-4.542 12.451,-11.09 0,0 0,-0.006 0.008,-0.03 0.023,-0.098 0.046,-0.196 0.061,-0.303 0.046,-0.196 0.076,-0.393 0.106,-0.597 0.023,-0.091 0.037,-0.182 0.045,-0.273 0.121,-0.674 0.242,-1.521 0.28,-2.225 l -1.839,-0.008 c -0.167,-0.015 -0.34,-0.023 -0.523,-0.023 -3.905,0.016 -7.804,0.008 -11.702,0.008 C 9.265,-5.102 5.874,-5.056 2.468,-5.109 H 2.263 c -0.159,0 -0.326,-0.007 -0.485,-0.007 H 1.431 L -0.984,-5.124 C -1.007,-3.255 -0.492,-1.354 0,0 m 3.648,-10.794 c 9.166,0.016 18.341,0.083 27.515,-0.06 h 0.151 l 2.87,-0.023 c 0.28,1.802 0,5.337 0,5.337 -0.106,0.983 -0.198,1.976 -0.341,2.959 C 32.359,7.843 24.524,15.116 13.564,15.435 3.853,15.722 -4.822,10.733 -7.6,0.175 c -1.045,-3.951 -1.234,-8.237 -1.143,-12.362 0.181,-8.455 3.436,-15.54 11.498,-19.158 8.259,-3.717 16.593,-3.489 24.298,1.809 3.618,2.483 5.662,6.124 6.903,10.605 -2.702,0.386 -5.003,0.719 -7.425,1.068 -0.636,-1.212 -1.174,-2.347 -1.802,-3.43 -1.922,-3.292 -4.647,-5.563 -8.493,-6.184 -8.099,-1.301 -14.799,3.202 -16.819,10.946 0,0 -0.046,0.166 -0.106,0.446 -0.023,0.076 -0.045,0.151 -0.053,0.228 -0.008,0.044 -0.015,0.083 -0.03,0.128 -0.023,0.098 -0.045,0.189 -0.053,0.288 -0.046,0.204 -0.091,0.423 -0.129,0.658 -0.227,1.249 -0.432,2.907 -0.227,4.05 z"
             style="fill:#1a5da8;fill-opacity:1;fill-rule:nonzero;stroke:none"
             id="path78"
             inkscape:connector-curvature="0" /></g><g
           id="g80"
           transform="translate(572.7609,107.5771)"><path
             d="M 0,0 C -0.015,-0.03 -0.03,-0.061 -0.045,-0.091 -0.015,-0.03 0,0 0,0"
             style="fill:#00435b;fill-opacity:1;fill-rule:nonzero;stroke:none"
             id="path82"
             inkscape:connector-curvature="0" /></g><g
           id="g84"
           transform="translate(102.3557,97.9267)"><path
             d="m 0,0 c -5.866,2.142 -11.959,3.648 -17.916,5.548 -2.347,0.75 -4.308,2.112 -4.459,4.897 -0.144,2.748 1.529,4.383 3.822,5.412 7.055,3.158 14.042,0.455 17.047,-6.698 2.339,0.318 4.731,0.651 7.388,1.022 -0.802,4.677 -2.4,8.477 -6.51,10.506 -7.342,3.619 -14.904,3.952 -22.322,0.431 -4.845,-2.293 -7.259,-6.472 -7.055,-11.906 0.196,-5.283 2.967,-8.864 7.819,-10.749 2.862,-1.112 5.852,-1.923 8.796,-2.831 3.119,-0.953 6.328,-1.665 9.364,-2.831 3.716,-1.431 4.851,-5.322 2.383,-8.447 -1.157,-1.476 -2.959,-2.793 -4.738,-3.361 -4.496,-1.438 -8.311,-1.212 -11.347,0.612 -5.329,2.696 -6.146,8.418 -6.146,8.418 -2.422,-0.363 -4.882,-0.742 -7.501,-1.135 0.811,-4.207 2.25,-7.891 5.041,-10.489 l -0.005,-0.001 c 0,0 4.732,-5.371 15.013,-4.83 v 0.004 c 3.811,0.042 7.613,0.958 11.349,2.796 3.657,1.801 6.048,4.852 7.168,8.833 C 9.031,-8.281 6.374,-2.332 0,0"
             style="fill:#00435b;fill-opacity:1;fill-rule:nonzero;stroke:none"
             id="path86"
             inkscape:connector-curvature="0" /></g></g></g><path
       style="fill:#413f41;fill-opacity:1;stroke:#413f41;stroke-width:0.39062083;stroke-opacity:1"
       d="m 111.71557,173.30411 c -8.29291,-2.23707 -13.766576,-7.70583 -16.084404,-16.06999 -0.43217,-1.55954 -0.718775,-2.90251 -0.6369,-2.98439 0.08188,-0.0819 1.793312,-0.40114 3.803193,-0.70947 2.009881,-0.30834 4.112711,-0.6397 4.672961,-0.73635 0.9092,-0.15685 1.07124,3.7e-4 1.50835,1.46353 1.93127,6.46467 7.65804,11.03097 14.41521,11.49412 3.46924,0.23778 7.90387,-0.56842 10.42685,-1.89556 3.53139,-1.8576 6.39279,-5.66006 6.41108,-8.51956 0.0124,-1.93844 -1.35713,-4.47338 -3.03247,-5.61297 -0.7981,-0.54289 -3.47255,-1.60706 -5.94323,-2.36485 -2.47067,-0.75778 -7.9785,-2.44748 -12.23961,-3.75488 -4.26112,-1.30741 -8.76452,-2.89051 -10.00757,-3.518 -2.89489,-1.46133 -5.528802,-4.10354 -6.925015,-6.94684 -1.030258,-2.09804 -1.100626,-2.55532 -1.096389,-7.1247 0.0043,-4.59932 0.0709,-5.01881 1.147867,-7.22648 2.226957,-4.56504 6.149047,-7.44179 13.139207,-9.63727 2.5241,-0.79278 3.67272,-0.90745 8.95034,-0.89359 5.57797,0.0147 6.31601,0.10284 9.3749,1.12011 6.95122,2.3117 10.14151,4.57328 12.11973,8.5916 1.06626,2.16589 2.31634,5.97935 2.3286,7.10357 0.003,0.2479 -1.66436,0.62744 -3.99923,0.9105 -2.20212,0.26696 -4.29482,0.56561 -4.65044,0.66367 -0.45967,0.12675 -1.00347,-0.4455 -1.88121,-1.97963 -1.74386,-3.04794 -4.46892,-5.61717 -7.42516,-7.00057 -5.00822,-2.34363 -12.37878,-1.67955 -16.57014,1.49294 -3.52699,2.66962 -4.03147,7.40922 -1.11413,10.46727 1.27551,1.33703 2.81741,1.91392 14.25993,5.33522 11.73883,3.50989 15.24027,4.79619 17.75054,6.52086 6.25014,4.29415 7.94881,12.48649 4.22523,20.37734 -2.5189,5.33792 -6.52911,8.47542 -13.87186,10.85303 -2.9611,0.95882 -4.0175,1.08993 -9.76552,1.21203 -5.47338,0.11626 -6.87431,0.0212 -9.29071,-0.63069 z"
       id="path88"
       inkscape:connector-curvature="0"
       transform="matrix(0.75000002,0,0,-0.75000002,0,202.29601)" /><path
       style="fill:#413f41;fill-opacity:1;stroke:#413f41;stroke-width:0.19531041;stroke-opacity:1"
       d="m 159.89253,153.15259 v -43.65188 h 4.49214 4.49214 v 4.49214 c 0,2.47068 0.0659,4.48834 0.14648,4.48369 0.0806,-0.005 0.58593,-0.76473 1.12303,-1.68909 2.31481,-3.98378 6.33603,-6.82967 11.58786,-8.20094 2.57717,-0.67291 6.87317,-0.83752 9.79216,-0.3752 5.18965,0.82197 9.89348,3.18673 13.49748,6.78564 1.98037,1.97756 3.50891,4.19142 4.84715,7.02039 5.53122,11.69266 5.75914,23.91721 0.66608,35.72504 -1.15014,2.66649 -2.00015,4.17861 -3.4423,6.12363 -6.11504,8.24736 -17.1898,12.20591 -26.1983,9.36429 -2.2713,-0.71645 -4.194,-1.74265 -7.6128,-4.06315 -1.66104,-1.12743 -3.06843,-2.04987 -3.12753,-2.04987 -0.0591,0 -0.10745,6.67962 -0.10745,14.84359 v 14.8436 h -5.07807 -5.07807 z m 29.95812,11.82191 c 3.70499,-0.94758 7.12998,-3.42671 9.34791,-6.76635 2.99116,-4.50394 4.81146,-13.25565 4.24597,-20.41388 -0.53618,-6.78714 -2.6452,-12.94841 -5.66441,-16.54791 -2.90669,-3.46535 -7.46182,-5.31743 -12.39958,-5.04156 -3.72984,0.20838 -6.49369,1.43555 -9.08194,4.03244 -1.97082,1.97741 -2.9444,3.68428 -4.08811,7.16727 -1.56143,4.75507 -2.23186,9.144 -2.21766,14.51773 0.0142,5.36658 0.82518,10.67194 2.15478,14.09609 1.91552,4.93306 6.37555,8.51009 11.66586,9.35622 1.4312,0.2289 4.32873,0.0369 6.03718,-0.40005 z"
       id="path92"
       inkscape:connector-curvature="0"
       transform="matrix(0.75000002,0,0,-0.75000002,0,202.29601)" /><path
       style="fill:#413f41;fill-opacity:1;stroke:#413f41;stroke-width:0.19531041;stroke-opacity:1"
       d="m 227.07931,141.141 v -31.44498 h 4.58979 4.5898 v 4.33671 4.33671 l 2.65704,-2.77831 c 4.02841,-4.21227 6.56624,-6.12259 9.4463,-7.11061 1.85006,-0.63467 4.42655,-0.59078 6.5488,0.11156 1.71319,0.56696 5.33642,2.42105 5.61104,2.87129 0.11742,0.19253 -0.34928,1.6926 -1.45539,4.6779 l -1.62824,4.39448 -0.58012,-0.0165 c -0.31906,-0.009 -1.37103,-0.25429 -2.33771,-0.54486 -8.1733,-2.45682 -13.65834,0.4063 -15.62411,8.15558 -1.14802,4.52564 -1.45789,10.93468 -1.46242,30.24722 l -0.003,14.20884 h -5.17573 -5.17572 z"
       id="path94"
       inkscape:connector-curvature="0"
       transform="matrix(0.75000002,0,0,-0.75000002,0,202.29601)" /><path
       style="fill:#413f41;fill-opacity:1;stroke:#413f41;stroke-width:0.19531041;stroke-opacity:1"
       d="m 267.70387,141.04334 v -31.54263 h 4.98042 4.98042 v 31.54263 31.54264 h -4.98042 -4.98042 z"
       id="path96"
       inkscape:connector-curvature="0"
       transform="matrix(0.75000002,0,0,-0.75000002,0,202.29601)" /><path
       style="fill:#413f41;fill-opacity:1;stroke:#413f41;stroke-width:0.19531041;stroke-opacity:1"
       d="m 294.65671,141.04334 v -31.54263 h 4.39449 4.39448 v 4.10152 c 0,2.42937 0.0748,4.10152 0.18358,4.10152 0.10096,0 1.22156,-0.97433 2.49021,-2.16518 4.53836,-4.26006 8.75134,-6.45134 14.09245,-7.32984 2.4995,-0.41111 7.06525,-0.26743 9.32646,0.29352 8.43634,2.09281 13.46113,6.61208 14.84903,13.35511 0.29795,1.44757 0.3395,4.05911 0.41627,26.16833 l 0.0853,24.56029 h -4.99916 -4.99915 l -0.005,-11.47449 c -0.007,-16.97759 -0.30365,-31.97172 -0.67401,-34.08245 -0.5793,-3.30153 -1.88319,-5.6302 -4.08689,-7.29897 -2.31419,-1.75243 -5.17301,-2.60308 -8.76776,-2.60886 -4.67416,-0.008 -8.74295,1.55666 -11.67428,4.48799 -1.65377,1.65377 -2.70693,3.72153 -3.49666,6.86526 -1.24715,4.96462 -1.23312,4.69562 -1.32014,25.31289 l -0.0793,18.79863 h -5.06502 -5.06503 z"
       id="path98"
       inkscape:connector-curvature="0"
       transform="matrix(0.75000002,0,0,-0.75000002,0,202.29601)" /><path
       style="fill:#413f41;fill-opacity:1;stroke:#413f41;stroke-width:0.19531041;stroke-opacity:1"
       d="m 380.31781,198.36183 c -6.29039,-0.72169 -11.98911,-3.13776 -15.45424,-6.55208 -2.81175,-2.77054 -4.27004,-6.0332 -4.6858,-10.48363 l -0.12316,-1.31835 h 4.38037 4.38036 l 0.37146,0.82837 c 0.7005,1.56213 2.16354,3.56699 3.5619,4.88098 3.20741,3.01389 8.76959,4.71784 13.83576,4.23853 5.46519,-0.51706 10.14631,-2.72904 12.50035,-5.90681 1.79689,-2.42567 2.61815,-4.99882 2.98919,-9.36568 0.22805,-2.68399 0.53871,-9.71457 0.42925,-9.71439 -0.16267,1.9e-4 -2.01404,1.35619 -3.06672,2.24605 -3.23864,2.73772 -6.8506,4.43186 -11.21332,5.25945 -2.09412,0.39725 -6.26693,0.39954 -8.5312,0.005 -10.1136,-1.76367 -17.65412,-9.69557 -20.66721,-21.73991 -2.03814,-8.14716 -1.59393,-17.34676 1.19904,-24.83226 3.57748,-9.58808 10.12122,-15.52151 19.29525,-17.49564 1.08993,-0.23454 2.47804,-0.33776 4.58979,-0.34132 3.5456,-0.006 6.03244,0.43264 8.88662,1.56731 3.2089,1.27568 5.16637,2.54 8.33216,5.38168 0.95777,0.85971 1.7808,1.5237 1.82897,1.47553 0.0482,-0.0482 0.13676,-1.26791 0.19687,-2.71054 0.0601,-1.44263 0.15452,-2.99649 0.20982,-3.45303 l 0.10054,-0.83007 h 4.67548 4.67548 l -0.008,19.2869 c -0.009,21.60573 -0.25946,41.62921 -0.5688,45.4585 -1.14633,14.19017 -8.16992,21.67026 -22.37221,23.82631 -2.4309,0.36903 -7.69246,0.52524 -9.74804,0.28941 z m 9.68607,-34.67777 c 4.12239,-0.91989 7.86867,-3.75509 9.3715,-7.09241 3.35186,-7.44345 4.23459,-16.2231 2.47638,-24.63024 -0.48065,-2.29829 -1.02648,-4.20486 -1.67745,-5.85931 -2.53194,-6.43494 -9.01015,-10.16296 -16.29147,-9.37528 -3.63794,0.39355 -6.34044,1.58974 -8.81485,3.90166 -2.39032,2.23334 -3.74855,4.5029 -5.0297,8.40444 -2.71622,8.2718 -2.33837,17.50133 1.04489,25.52294 2.69915,6.39964 8.24375,9.831 15.40512,9.53372 1.14754,-0.0476 2.72956,-0.23012 3.51558,-0.40552 z"
       id="path100"
       inkscape:connector-curvature="0"
       transform="matrix(0.75000002,0,0,-0.75000002,0,202.29601)" /><path
       style="fill:#413f41;fill-opacity:1;stroke:#413f41;stroke-width:0.78124166;stroke-opacity:1"
       d="m 268.27139,90.946828 v -5.468691 h 4.68745 4.68745 v 5.468691 5.468692 h -4.68745 -4.68745 z"
       id="path102"
       inkscape:connector-curvature="0"
       transform="matrix(0.75000002,0,0,-0.75000002,0,202.29601)" /></g></svg>