<svg xmlns="http://www.w3.org/2000/svg" width="930.391" height="175.69"><defs><clipPath id="a"><path d="M0 202.296h841.89V0H0z"/></clipPath></defs><text transform="matrix(1.33333 0 0 1.33333 815.291 152.985)" style="-inkscape-font-specification:ArialMT" font-weight="400" font-size="85.393" font-family="Arial" fill="#413f4b"><tspan x="0 23.739309" y="0">IO</tspan></text><g clip-path="url(#a)" transform="matrix(1.33333 0 0 -1.33333 -94.64 246.797)"><path d="M333.667 131.02c.043 2.553-2.425 5.124-4.984 5.191-2.597.07-5.115-2.348-5.173-4.966-.06-2.639 2.293-5.08 4.96-5.149 2.641-.066 5.152 2.311 5.197 4.923m35.73-59.649c1.114 1.661 1.966 2.92 2.806 4.19 15.08 22.777 30.15 45.563 45.243 68.331 2.29 3.454 1.538 3.726 5.42 1.128.894-.598 1.78-1.208 2.935-1.995l-56.81-85.848c-4.513 7.443-8.782 14.484-13.053 21.525-8.47 13.964-16.956 27.92-25.4 41.9-1.05 1.737-2.166 3.025-4.31 3.68-4.04 1.231-5.92 5.316-4.626 9.11 1.298 3.81 5.092 5.873 8.828 4.802 4.143-1.188 6.19-4.848 5.265-9.046-.225-1.023-.129-2.396.393-3.263 10.523-17.495 21.13-34.94 31.728-52.389.37-.606.847-1.145 1.581-2.125" fill="#1a5da8"/><path d="M258.665 72.76h-7.569c0 1.172.006 2.227 0 3.282-.068 9.615.035 19.237-.269 28.845-.18 5.648-2.856 8.535-7.664 9.385-5.194.918-11.099-1.622-12.78-6.111-1.086-2.893-1.55-6.147-1.643-9.26-.225-7.615-.074-15.242-.074-22.864v-3.22h-7.76v47.364h6.778v-6.15c.722.582 1.066.79 1.322 1.075 5.778 6.439 14.8 8.148 22.56 4.324 4.321-2.128 6.858-5.813 6.984-10.326.337-12.042.115-24.1.115-36.344M195.668 118.713l-2.536-6.886c-.32-.04-.52-.13-.667-.074-7.849 2.915-12.667.33-13.712-7.98-.697-5.547-.532-11.208-.643-16.82-.09-4.62-.018-9.243-.018-14.125h-7.835v47.302h7.026v-6.5c7.478 8.626 11.181 9.64 18.385 5.083M200.689 120.243h7.576V72.769h-7.576zM200.78 138.53h7.527v-8.809h-7.527zM150.9 86.806c-1.832-5.373-6.548-8.666-11.688-8.575a11.156 11.156 0 0 0-5.003 1.295c-2.9 1.536-4.86 4.375-5.632 7.56-2.4 10.008-.204 17.729 1.219 21.264.68 1.687 1.696 3.247 3.096 4.405 1.968 1.628 4.466 2.52 7.516 2.347 5.579-.312 8.925-3.786 10.62-8.78 2.203-6.466 2.066-13.067-.128-19.516m6.373 24.474c-5.73 11.844-21.906 13.131-28.696 5.017a3.534 3.534 0 0 1-.28-.347c-.696-.932-1.544-2.552-1.544-2.552v6.783h-6.85V54.576h7.668v22.382c2.308-1.475 4.276-3.126 6.524-4.102 8.243-3.566 18.878.719 23.17 9.537 4.64 9.538 4.625 19.348.008 28.886M289.14 79.253c-5.29.083-9.045 2.74-10.937 7.523-2.574 6.54-2.687 13.338-.212 19.923 1.832 4.86 5.533 7.918 10.9 8.077 4.896.146 8.667-2.13 10.823-6.2.606-1.35 5.238-12.466-.631-24.538-2.196-3.195-5.591-4.852-9.942-4.785m20.627 40.92h-7.153c-.077-1.718-.152-3.292-.236-5.3-.673.608-1.06.933-1.423 1.288-7.872 7.729-20.861 6.744-27.537-2.081-7.214-9.546-6.858-25.918.764-35.123 6.449-7.796 18.546-8.568 25.986-1.665.402.37.894.65 1.696 1.233-.174-3.284-.16-6.1-.522-8.871-.477-3.602-2.225-6.615-5.601-8.182-4.482-2.081-9.236-2.324-13.671-.114-3.437 1.53-4.99 4.913-5.42 6.01h-6.585c-.16-4.746 2.157-8.78 6.426-11.172 5.042-2.816 10.514-3.331 16.108-2.513 10.726 1.559 16.236 7.508 16.827 18.326.318 5.798.303 11.61.333 17.417.045 10.158.008 20.316.008 30.747" fill="#00435b"/><path d="M465.22 120.09l-5.296.03c-.2.013-.39.015-.566.004l-1.704.01-.78-2.196a4900.726 4900.726 0 0 0-9.759-27.328l-3.346-8.451-3.03 7.553c-3.238 9.282-6.47 18.566-9.747 27.835l-.881 2.59-3.328-.032c-1.343.015-2.737-.041-4.245-.041.48-1.46.752-2.405 1.1-3.32 5.248-13.79 10.607-27.54 15.682-41.392l.897-2.318 4.888-.026a5.4 5.4 0 0 1 .359-.002l2.082-.011 1.1 3.05c2.848 7.883 5.914 15.687 8.877 23.527 2.519 6.668 5.009 13.347 7.697 20.518" fill="#1a5da8"/><path d="M373.529 101.214c-2.49 0-4.68 2.173-4.72 4.683-.04 2.55 2.023 4.692 4.585 4.759 2.563.068 4.751-1.954 4.865-4.492.116-2.584-2.146-4.95-4.73-4.95m89.53 20.892l1.314.016-41.997 62.976c-.739-1.062-1.309-1.851-1.846-2.663-14.678-22.171-29.356-44.341-44.018-66.522-.868-1.312-1.65-2.262-3.554-2.358-4.5-.227-7.724-4.377-7.077-8.62.672-4.41 4.757-7.3 9.13-6.455 4.482.864 6.944 5.04 5.907 9.7-.217.977-.028 2.328.514 3.15 13.21 20.097 26.491 40.145 39.77 60.195.322.485.763.892 1.274 1.48.699-1.01 1.27-1.812 1.816-2.63 10.225-15.323 20.437-30.655 30.699-45.953.137-.204.292-.42.457-.634h-.001l.05-.066.005-.006 1.31-1.69 2.636.034c1.129-.031 2.316.017 3.61.046" fill="#376a4b"/><path d="M531.796 133.6l.014.002v4.815h-7.408v-2.754a8.467 8.467 0 0 1-.005-.427c.216-9.882.08-19.771.08-29.657 0-9.795.112-19.593-.072-29.385a9.142 9.142 0 0 1 .006-.53V73.05h1.952c.445-.068.966-.075 1.564-.05.47.02.915.026 1.33.05h2.553v5.01h-.012a4016.573 4016.573 0 0 0-.002 55.54M552.357 138.417h-7.204V73.05h2.826l.276-.001h4.102v59.1c0 .663-.001 1.243-.008 1.78l.008.003zM655.397 120.212h-7.506l-.94-2.582a12.017 12.017 0 0 1-.352-.924c-3.808-11.236-7.794-22.413-11.731-33.605-.141-.401-.443-.744-.835-1.388-.395.799-.72 1.314-.916 1.875-3.671 10.5-7.32 21.008-11.03 31.493l.01-.002-1.71 5.003h-2.474c-1.681.095-3.413 0-5.301 0 .313-1.086.48-1.867.762-2.605 4.96-13.045 9.76-26.157 15.003-39.087 1.749-4.313 1.759-8.028-.27-12.112-2.081-4.193-5.243-6.128-9.853-5.426-.692.104-1.381.233-2.426.41v-7.077s6.904-1.24 10.495.516l-.004.005c1.993.836 3.732 2.3 5.125 4.528 1.29 2.065 2.456 4.258 3.32 6.528 6.378 16.736 12.676 33.5 18.979 50.264zM499.84 83.533c-4.372-4.146-9.734-5.056-15.44-3.695-3.635.866-5.926 3.825-6.06 7.161-.132 3.291 2 6.457 5.673 7.414 4.542 1.183 9.217 1.854 13.821 2.806 1.844.38 3.655.917 5.751 1.451.455-5.66.601-11.014-3.746-15.137m12.753-8.505c-.034.381-.074.76-.11 1.14l-1.004 12.618c-.229 7.061-.239 14.132-.439 21.195-.179 6.28-2.793 9.85-8.77 11.587-7.274 2.114-14.528 1.797-21.559-1.144-4.846-2.029-7.373-5.893-8.523-11.154l-.006-.006s-.249-.949-.249-1.61h7.546s.21 1.11.59 2.37c.096.216.188.446.27.704 1.002 3.15 3.435 5.25 6.76 5.597 3.111.324 6.368.541 9.41-.019 5.305-.975 7.193-3.873 7.324-9.2.055-2.199-.82-3.153-2.81-3.489-3.66-.618-7.338-1.15-10.962-1.934-4.217-.91-8.603-1.544-12.52-3.22-5.21-2.23-7.695-7.743-6.983-13.286.693-5.395 4.742-9.63 10.43-10.833 7.637-1.616 14.567-.007 20.813 4.652.742.553 1.542 1.028 2.408 1.601l1.786-5.835h6.598l-.02.263zM571.951 105.632c.25.704.492 1.265.644 1.598.03.068.06.129.09.189.007.03.023.053.031.067l.045.09c2.407 4.854 6.98 7.624 12.974 7.503 6.214-.13 11.051-4.542 12.451-11.09 0 0 0-.006.008-.03.023-.098.046-.196.061-.303.046-.196.076-.393.106-.597.023-.091.037-.182.045-.273.121-.674.242-1.521.28-2.225l-1.839-.008a5.823 5.823 0 0 0-.523-.023c-3.905.016-7.804.008-11.702.008-3.406-.008-6.797.038-10.203-.015h-.205c-.159 0-.326-.007-.485-.007h-.347l-2.415-.008c-.023 1.869.492 3.77.984 5.124m3.648-10.794c9.166.016 18.341.083 27.515-.06h.151l2.87-.023c.28 1.802 0 5.337 0 5.337-.106.983-.198 1.976-.34 2.959-1.485 10.424-9.32 17.697-20.28 18.016-9.71.287-18.386-4.702-21.164-15.26-1.045-3.951-1.234-8.237-1.143-12.362.181-8.455 3.436-15.54 11.498-19.158 8.26-3.717 16.593-3.49 24.298 1.809 3.618 2.483 5.662 6.124 6.903 10.605-2.702.386-5.003.719-7.425 1.068-.636-1.212-1.174-2.347-1.802-3.43-1.922-3.292-4.647-5.563-8.493-6.184-8.099-1.301-14.799 3.202-16.819 10.946 0 0-.046.166-.106.446a1.234 1.234 0 0 0-.053.228c-.008.044-.015.083-.03.128-.023.098-.045.189-.053.288a10.84 10.84 0 0 0-.129.658c-.227 1.249-.432 2.907-.227 4.05z" fill="#1a5da8"/><path d="M572.76 107.577l-.044-.09.045.09M102.356 97.927c-5.866 2.142-11.96 3.648-17.916 5.548-2.347.75-4.308 2.112-4.46 4.897-.143 2.748 1.53 4.383 3.823 5.412 7.055 3.158 14.042.455 17.047-6.698 2.339.318 4.73.65 7.388 1.022-.802 4.677-2.4 8.477-6.51 10.506-7.342 3.619-14.904 3.952-22.322.43-4.845-2.292-7.26-6.471-7.055-11.905.196-5.283 2.967-8.864 7.819-10.75 2.862-1.111 5.852-1.922 8.796-2.83 3.119-.953 6.328-1.665 9.364-2.831 3.716-1.431 4.85-5.322 2.383-8.447-1.157-1.476-2.96-2.793-4.738-3.361-4.496-1.438-8.311-1.212-11.347.612-5.33 2.696-6.146 8.418-6.146 8.418-2.422-.363-4.882-.742-7.501-1.135.81-4.207 2.25-7.891 5.04-10.49h-.004s4.732-5.371 15.013-4.83v.004c3.81.042 7.613.958 11.349 2.796 3.657 1.8 6.048 4.852 7.168 8.833 1.84 6.518-.817 12.467-7.191 14.799" fill="#00435b"/></g><path d="M17.075 150.373c-8.293-2.237-13.767-7.706-16.085-16.07-.432-1.56-.719-2.902-.637-2.984.082-.082 1.794-.401 3.804-.71 2.01-.308 4.112-.64 4.672-.736.91-.157 1.072 0 1.509 1.463 1.931 6.465 7.658 11.031 14.415 11.495 3.47.237 7.904-.569 10.427-1.896 3.531-1.858 6.393-5.66 6.411-8.52.012-1.938-1.357-4.473-3.032-5.612-.799-.543-3.473-1.608-5.944-2.365l-12.24-3.755c-4.26-1.308-8.764-2.89-10.007-3.518-2.895-1.462-5.529-4.104-6.925-6.947-1.03-2.098-1.1-2.555-1.096-7.125.004-4.6.07-5.019 1.148-7.226 2.227-4.565 6.149-7.442 13.139-9.637 2.524-.793 3.672-.908 8.95-.894 5.578.015 6.316.103 9.375 1.12 6.951 2.312 10.142 4.573 12.12 8.592 1.066 2.166 2.316 5.979 2.328 7.103.003.248-1.664.628-3.999.91-2.202.268-4.295.566-4.65.664-.46.127-1.004-.445-1.882-1.98-1.743-3.047-4.468-5.616-7.425-7-5.008-2.343-12.378-1.68-16.57 1.493-3.527 2.67-4.031 7.41-1.114 10.467 1.276 1.337 2.817 1.914 14.26 5.336 11.739 3.51 15.24 4.796 17.75 6.52 6.25 4.295 7.95 12.487 4.226 20.378-2.52 5.338-6.53 8.475-13.872 10.853-2.961.959-4.018 1.09-9.766 1.212-5.473.116-6.874.021-9.29-.63z" fill="#413f41" stroke="#413f41" stroke-width=".391"/><path d="M65.252 130.222V86.57h8.984v4.492c0 2.47.066 4.488.146 4.484.081-.005.586-.765 1.123-1.69 2.315-3.983 6.336-6.83 11.588-8.2 2.577-.673 6.873-.838 9.792-.376 5.19.822 9.894 3.187 13.498 6.786 1.98 1.978 3.509 4.191 4.847 7.02 5.531 11.693 5.76 23.918.666 35.725-1.15 2.667-2 4.179-3.442 6.124-6.115 8.247-17.19 12.206-26.198 9.364-2.272-.716-4.194-1.742-7.613-4.063-1.661-1.127-3.069-2.05-3.128-2.05-.059 0-.107 6.68-.107 14.844v14.844H65.252zm29.958 11.822c3.705-.948 7.13-3.427 9.348-6.767 2.99-4.504 4.811-13.255 4.246-20.414-.537-6.787-2.646-12.948-5.665-16.548-2.907-3.465-7.462-5.317-12.4-5.041-3.73.208-6.493 1.435-9.081 4.032-1.971 1.978-2.945 3.685-4.088 7.168-1.562 4.755-2.232 9.144-2.218 14.517.014 5.367.825 10.672 2.155 14.096 1.915 4.933 6.375 8.51 11.666 9.357 1.43.229 4.328.037 6.037-.4zM132.438 118.21V86.765h9.18v8.673l2.657-2.778c4.028-4.212 6.566-6.122 9.446-7.11 1.85-.635 4.427-.591 6.55.111 1.712.567 5.336 2.421 5.61 2.871.118.193-.35 1.693-1.455 4.678l-1.628 4.395-.58-.017c-.32-.009-1.372-.254-2.338-.545-8.174-2.456-13.659.407-15.624 8.156-1.148 4.526-1.458 10.935-1.463 30.247l-.003 14.21H132.44zM173.063 118.112V86.57h9.96v63.085h-9.96zM200.016 118.112V86.57h8.789v4.101c0 2.43.075 4.102.183 4.102.101 0 1.222-.975 2.49-2.165 4.539-4.26 8.752-6.452 14.093-7.33 2.5-.411 7.065-.268 9.326.293 8.437 2.093 13.462 6.612 14.85 13.355.297 1.448.339 4.06.416 26.169l.085 24.56H240.25l-.005-11.474c-.007-16.978-.304-31.972-.674-34.083-.58-3.301-1.883-5.63-4.087-7.299-2.314-1.752-5.173-2.603-8.768-2.609-4.674-.008-8.743 1.557-11.674 4.488-1.654 1.654-2.707 3.722-3.497 6.866-1.247 4.964-1.233 4.695-1.32 25.312l-.08 18.799H200.017zM285.677 175.43c-6.29-.72-11.99-3.137-15.454-6.551-2.812-2.77-4.27-6.033-4.686-10.484l-.123-1.318h8.76l.372.828c.7 1.562 2.163 3.567 3.562 4.881 3.207 3.014 8.77 4.718 13.836 4.239 5.465-.517 10.146-2.73 12.5-5.907 1.797-2.426 2.618-4.999 2.99-9.366.227-2.684.538-9.714.428-9.714-.162 0-2.014 1.356-3.066 2.246-3.239 2.738-6.851 4.432-11.214 5.26-2.094.397-6.267.399-8.53.004-10.115-1.763-17.655-9.695-20.668-21.74-2.038-8.147-1.594-17.346 1.199-24.832 3.577-9.588 10.121-15.521 19.295-17.495 1.09-.235 2.478-.338 4.59-.342 3.546-.006 6.032.433 8.887 1.568 3.208 1.275 5.166 2.54 8.332 5.381.957.86 1.78 1.524 1.829 1.476.048-.048.136-1.268.197-2.71.06-1.443.154-2.997.21-3.454l.1-.83H318.374l-.008 19.287c-.01 21.606-.26 41.63-.569 45.458-1.146 14.19-8.17 21.67-22.372 23.827-2.431.369-7.693.525-9.748.29zm9.686-34.677c4.122-.92 7.869-3.755 9.371-7.092 3.352-7.444 4.235-16.223 2.477-24.63-.48-2.299-1.027-4.205-1.678-5.86-2.532-6.435-9.01-10.163-16.291-9.375-3.638.393-6.34 1.59-8.815 3.902-2.39 2.233-3.748 4.502-5.03 8.404-2.716 8.272-2.338 17.501 1.045 25.523 2.7 6.4 8.244 9.83 15.405 9.534 1.148-.048 2.73-.23 3.516-.406z" fill="#413f41" stroke="#413f41" stroke-width=".195"/><path d="M173.63 68.016v-5.469h9.375v10.938h-9.375z" fill="#413f41" stroke="#413f41" stroke-width=".781"/></svg>