<?xml version="1.0" encoding="UTF-8" standalone="no"?>
<svg
   xmlns:dc="http://purl.org/dc/elements/1.1/"
   xmlns:cc="http://creativecommons.org/ns#"
   xmlns:rdf="http://www.w3.org/1999/02/22-rdf-syntax-ns#"
   xmlns:svg="http://www.w3.org/2000/svg"
   xmlns="http://www.w3.org/2000/svg"
   xmlns:sodipodi="http://sodipodi.sourceforge.net/DTD/sodipodi-0.dtd"
   xmlns:inkscape="http://www.inkscape.org/namespaces/inkscape"
   width="1299.0564"
   height="250.9339"
   viewBox="0 0 83.893064 16.205311"
   class="lines"
   version="1.1"
   id="svg18"
   sodipodi:docname="sv.svg"
   inkscape:version="1.0.2 (e86c870879, 2021-01-15)">
  <metadata
     id="metadata24">
    <rdf:RDF>
      <cc:Work
         rdf:about="">
        <dc:format>image/svg+xml</dc:format>
        <dc:type
           rdf:resource="http://purl.org/dc/dcmitype/StillImage" />
        <dc:title></dc:title>
      </cc:Work>
    </rdf:RDF>
  </metadata>
  <defs
     id="defs22" />
  <sodipodi:namedview
     pagecolor="#ffffff"
     bordercolor="#666666"
     borderopacity="1"
     objecttolerance="10"
     gridtolerance="10"
     guidetolerance="10"
     inkscape:pageopacity="0"
     inkscape:pageshadow="2"
     inkscape:window-width="1600"
     inkscape:window-height="872"
     id="namedview20"
     showgrid="false"
     scale-x="0.06458"
     fit-margin-top="0"
     fit-margin-left="0"
     fit-margin-right="0"
     fit-margin-bottom="0"
     inkscape:zoom="0.70200598"
     inkscape:cx="420.11804"
     inkscape:cy="107.009"
     inkscape:window-x="1600"
     inkscape:window-y="0"
     inkscape:window-maximized="1"
     inkscape:current-layer="svg18" />
  <g
     aria-label="spring"
     style="line-height:1.25;-inkscape-font-specification:arial"
     font-weight="400"
     font-size="40px"
     font-family="arial"
     letter-spacing="0"
     word-spacing="0"
     fill="none"
     stroke="#413f4b"
     stroke-width="0.5"
     id="g4"
     transform="translate(0.01091542,2.7889986e-5)">
    <path
       d="m 0.066,12.026 0.92,-0.144 q 0.078,0.553 0.429,0.847 0.356,0.295 0.992,0.295 0.64,0 0.95,-0.259 0.311,-0.263 0.311,-0.615 0,-0.315 -0.274,-0.496 Q 3.203,11.53 2.444,11.339 1.42,11.081 1.022,10.895 q -0.393,-0.191 -0.6,-0.522 -0.2,-0.336 -0.2,-0.74 0,-0.366 0.165,-0.676 0.17,-0.315 0.46,-0.522 0.217,-0.16 0.589,-0.269 0.377,-0.113 0.806,-0.113 0.646,0 1.131,0.186 0.491,0.186 0.724,0.506 0.232,0.315 0.32,0.847 L 3.507,9.717 Q 3.446,9.293 3.147,9.055 2.852,8.817 2.309,8.817 1.669,8.817 1.394,9.029 1.12,9.241 1.12,9.525 q 0,0.181 0.114,0.326 0.114,0.15 0.357,0.248 0.14,0.052 0.821,0.238 0.987,0.263 1.375,0.434 0.393,0.165 0.615,0.485 0.222,0.32 0.222,0.796 0,0.465 -0.274,0.879 -0.269,0.408 -0.78,0.635 -0.512,0.223 -1.158,0.223 -1.07,0 -1.633,-0.445 Q 0.221,12.9 0.066,12.026 Z M 5.73,15.768 V 8.177 H 6.577 V 8.89 q 0.3,-0.419 0.677,-0.626 0.378,-0.211 0.915,-0.211 0.703,0 1.24,0.361 0.538,0.362 0.812,1.023 0.273,0.657 0.273,1.442 0,0.843 -0.304,1.52 -0.3,0.671 -0.879,1.033 -0.574,0.357 -1.21,0.357 -0.464,0 -0.836,-0.197 Q 6.898,13.396 6.66,13.096 v 2.672 z m 0.842,-4.816 q 0,1.059 0.43,1.565 0.428,0.507 1.038,0.507 0.62,0 1.06,-0.522 0.444,-0.527 0.444,-1.628 0,-1.049 -0.434,-1.57 Q 8.68,8.781 8.081,8.781 7.487,8.781 7.027,9.339 6.572,9.892 6.572,10.952 Z m 5.038,2.713 V 8.177 h 0.838 v 0.832 q 0.32,-0.584 0.589,-0.77 0.274,-0.186 0.6,-0.186 0.47,0 0.955,0.3 l -0.32,0.862 Q 13.931,9.014 13.59,9.014 q -0.305,0 -0.548,0.186 -0.243,0.18 -0.346,0.506 -0.155,0.496 -0.155,1.085 v 2.874 z m 3.55,-6.506 v -1.07 h 0.931 v 1.07 z m 0,6.506 V 8.177 h 0.931 v 5.488 z m 2.352,0 V 8.177 h 0.837 v 0.78 q 0.605,-0.904 1.747,-0.904 0.496,0 0.91,0.18 0.418,0.176 0.625,0.465 0.206,0.29 0.29,0.688 0.05,0.258 0.05,0.904 v 3.375 h -0.93 v -3.339 q 0,-0.568 -0.108,-0.847 -0.108,-0.284 -0.387,-0.45 -0.274,-0.17 -0.646,-0.17 -0.595,0 -1.029,0.377 -0.429,0.377 -0.429,1.431 v 2.998 z m 5.721,0.455 0.904,0.134 q 0.057,0.418 0.315,0.61 0.346,0.258 0.946,0.258 0.646,0 0.997,-0.259 0.352,-0.258 0.476,-0.723 0.072,-0.284 0.067,-1.194 -0.61,0.719 -1.52,0.719 -1.131,0 -1.751,-0.817 -0.62,-0.816 -0.62,-1.958 0,-0.786 0.284,-1.447 0.284,-0.667 0.822,-1.029 0.542,-0.361 1.27,-0.361 0.972,0 1.603,0.785 V 8.177 h 0.858 v 4.743 q 0,1.282 -0.264,1.814 -0.258,0.538 -0.827,0.848 -0.563,0.31 -1.39,0.31 -0.982,0 -1.586,-0.445 -0.605,-0.439 -0.584,-1.328 z m 0.77,-3.298 q 0,1.08 0.429,1.577 0.428,0.496 1.074,0.496 0.641,0 1.075,-0.491 0.434,-0.496 0.434,-1.55 0,-1.008 -0.45,-1.52 -0.444,-0.511 -1.074,-0.511 -0.62,0 -1.054,0.506 -0.434,0.501 -0.434,1.493 z"
       stroke-width="0.13229"
       id="path2" />
  </g>
  <g
     aria-label="valley"
     style="line-height:1.25;-inkscape-font-specification:arial"
     font-weight="400"
     font-size="10.583px"
     font-family="arial"
     letter-spacing="0"
     word-spacing="0"
     fill="none"
     stroke="#413f4b"
     stroke-width="0.132"
     id="g8"
     transform="translate(0.01091542,2.7889986e-5)">
    <path
       d="M 45.313,13.664 43.225,8.176 h 0.982 l 1.178,3.287 q 0.192,0.532 0.352,1.106 0.124,-0.434 0.346,-1.044 l 1.22,-3.349 h 0.956 l -2.078,5.488 z m 7.348,-0.677 q -0.516,0.44 -0.997,0.62 -0.475,0.181 -1.023,0.181 -0.905,0 -1.39,-0.439 -0.486,-0.444 -0.486,-1.132 0,-0.403 0.18,-0.733 0.187,-0.336 0.481,-0.538 0.3,-0.201 0.672,-0.305 0.274,-0.072 0.827,-0.14 1.127,-0.134 1.659,-0.32 0.005,-0.19 0.005,-0.243 0,-0.568 -0.264,-0.8 -0.356,-0.316 -1.059,-0.316 -0.656,0 -0.971,0.233 -0.31,0.227 -0.46,0.811 l -0.91,-0.124 q 0.124,-0.584 0.408,-0.94 0.285,-0.362 0.822,-0.553 0.538,-0.197 1.245,-0.197 0.703,0 1.143,0.166 0.439,0.165 0.645,0.418 0.207,0.248 0.29,0.63 0.046,0.238 0.046,0.859 v 1.24 q 0,1.297 0.057,1.643 0.062,0.341 0.238,0.656 H 52.847 Q 52.703,13.375 52.661,12.987 Z M 52.584,10.91 q -0.507,0.207 -1.52,0.351 -0.573,0.083 -0.81,0.186 -0.238,0.104 -0.368,0.305 -0.129,0.197 -0.129,0.44 0,0.372 0.28,0.62 0.283,0.248 0.826,0.248 0.537,0 0.956,-0.233 0.419,-0.238 0.615,-0.646 0.15,-0.315 0.15,-0.93 z m 2.366,2.754 V 6.09 h 0.93 v 7.575 z m 2.357,0 V 6.09 h 0.93 v 7.575 z m 6.134,-1.767 0.961,0.119 q -0.227,0.842 -0.842,1.307 -0.615,0.465 -1.571,0.465 -1.204,0 -1.912,-0.739 -0.703,-0.744 -0.703,-2.082 0,-1.385 0.713,-2.15 0.713,-0.765 1.85,-0.765 1.101,0 1.799,0.75 0.697,0.749 0.697,2.108 0,0.083 -0.005,0.248 h -4.093 q 0.052,0.904 0.512,1.385 0.46,0.48 1.147,0.48 0.512,0 0.873,-0.268 0.362,-0.269 0.574,-0.858 z m -3.054,-1.504 h 3.064 Q 63.389,9.701 63.1,9.355 62.656,8.817 61.948,8.817 q -0.641,0 -1.08,0.429 -0.435,0.429 -0.481,1.147 z m 5.147,5.385 -0.103,-0.873 q 0.304,0.082 0.532,0.082 0.31,0 0.496,-0.103 0.186,-0.103 0.305,-0.29 0.088,-0.139 0.284,-0.692 0.026,-0.077 0.083,-0.227 L 65.048,8.176 h 1.003 l 1.142,3.178 q 0.222,0.605 0.398,1.272 0.16,-0.641 0.382,-1.25 l 1.173,-3.2 h 0.93 l -2.087,5.581 q -0.336,0.905 -0.522,1.246 -0.248,0.46 -0.569,0.672 -0.32,0.217 -0.765,0.217 -0.268,0 -0.6,-0.114 z"
       id="path6" />
  </g>
  <path
     d="m 31.927915,6.8660279 c 0.005,-0.318 -0.303,-0.64 -0.622,-0.647 -0.324,-0.01 -0.638,0.293 -0.646,0.62 a 0.655,0.655 0 0 0 0.62,0.642 c 0.329,0.008 0.642,-0.289 0.648,-0.615 m 4.459,7.4440001 c 0.139,-0.207 0.245,-0.364 0.35,-0.523 1.882,-2.842 3.762,-5.6860001 5.646,-8.5270001 0.286,-0.43 0.192,-0.465 0.676,-0.14 0.112,0.074 0.222,0.15 0.367,0.248 l -7.09,10.7140001 -1.629,-2.687 c -1.057,-1.742 -2.116,-3.4840001 -3.17,-5.2280001 -0.13,-0.217 -0.27,-0.378 -0.537,-0.46 a 0.872,0.872 0 0 1 -0.578,-1.137 c 0.162,-0.475 0.636,-0.732 1.102,-0.599 0.517,0.148 0.772,0.605 0.657,1.13 a 0.609,0.609 0 0 0 0.049,0.406 c 1.313,2.184 2.637,4.3600001 3.96,6.5380001 0.046,0.076 0.105,0.143 0.197,0.265"
     fill="none"
     stroke="#1a5da8"
     stroke-width="0.132"
     id="path10" />
  <path
     d="m 36.901915,10.586028 a 0.606,0.606 0 0 1 -0.589,-0.585 0.59023068,0.59023068 0 0 1 1.18,-0.033 0.61,0.61 0 0 1 -0.59,0.6180001 m 11.172,-2.6070001 0.164,-0.003 -5.24,-7.85900001 c -0.093,0.133 -0.164,0.231 -0.231,0.333 -1.832,2.76700001 -3.664,5.53300001 -5.493,8.30100001 -0.109,0.164 -0.206,0.283 -0.444,0.295 a 0.945,0.945 0 0 0 -0.883,1.0750001 0.96,0.96 0 0 0 1.14,0.806 c 0.559,-0.108 0.866,-0.63 0.736,-1.2100001 a 0.565,0.565 0 0 1 0.065,-0.394 c 1.648,-2.508 3.305,-5.01 4.963,-7.512 0.04,-0.06 0.095,-0.111 0.159,-0.184 0.087,0.126 0.158,0.226 0.226,0.328 1.276,1.912 2.55,3.825 3.831,5.734 0.017,0.026 0.037,0.053 0.057,0.08 l 0.006,0.008 h 10e-4 l 0.164,0.211 0.328,-0.004 c 0.141,0.004 0.29,-0.002 0.451,-0.006"
     fill="none"
     stroke="#376a4b"
     stroke-width="0.132"
     id="path12" />
  <g
     aria-label="IO"
     style="line-height:1.25;-inkscape-font-specification:arial"
     font-weight="400"
     font-size="40px"
     font-family="arial"
     letter-spacing="0"
     word-spacing="0"
     fill="none"
     stroke="#413f4b"
     stroke-width="0.5"
     id="g16"
     transform="translate(0.01091542,2.7889986e-5)">
    <path
       d="M 74.112,13.664 V 6.088 h 1.002 v 7.576 z m 2.459,-3.69 q 0,-1.886 1.013,-2.95 1.013,-1.07 2.615,-1.07 1.05,0 1.892,0.5 0.842,0.502 1.281,1.401 0.444,0.894 0.444,2.031 0,1.153 -0.465,2.062 -0.465,0.91 -1.317,1.38 -0.853,0.465 -1.84,0.465 -1.07,0 -1.912,-0.517 -0.842,-0.517 -1.276,-1.41 -0.435,-0.895 -0.435,-1.892 z m 1.034,0.016 q 0,1.369 0.734,2.16 0.739,0.785 1.85,0.785 1.132,0 1.86,-0.796 0.734,-0.795 0.734,-2.258 0,-0.925 -0.315,-1.612 -0.31,-0.693 -0.915,-1.07 -0.6,-0.382 -1.349,-0.382 -1.064,0 -1.834,0.733 -0.765,0.73 -0.765,2.44 z"
       stroke-width="0.13229"
       id="path14" />
  </g>
</svg>
