<?xml version="1.0" encoding="UTF-8" standalone="no"?>
<svg
   xmlns:dc="http://purl.org/dc/elements/1.1/"
   xmlns:cc="http://creativecommons.org/ns#"
   xmlns:rdf="http://www.w3.org/1999/02/22-rdf-syntax-ns#"
   xmlns:svg="http://www.w3.org/2000/svg"
   xmlns="http://www.w3.org/2000/svg"
   xmlns:sodipodi="http://sodipodi.sourceforge.net/DTD/sodipodi-0.dtd"
   xmlns:inkscape="http://www.inkscape.org/namespaces/inkscape"
   viewBox="0 0 151.51202 34.393929"
   version="1.1"
   id="svg90"
   sodipodi:docname="sv.svg"
   width="151.51202"
   height="34.393929"
   inkscape:version="0.92.3 (2405546, 2018-03-11)">
  <metadata
     id="metadata96">
    <rdf:RDF>
      <cc:Work
         rdf:about="">
        <dc:format>image/svg+xml</dc:format>
        <dc:type
           rdf:resource="http://purl.org/dc/dcmitype/StillImage" />
        <dc:title></dc:title>
      </cc:Work>
    </rdf:RDF>
  </metadata>
  <defs
     id="defs94" />
  <sodipodi:namedview
     pagecolor="#ffffff"
     bordercolor="#666666"
     borderopacity="1"
     objecttolerance="10"
     gridtolerance="10"
     guidetolerance="10"
     inkscape:pageopacity="0"
     inkscape:pageshadow="2"
     inkscape:window-width="1366"
     inkscape:window-height="700"
     id="namedview92"
     showgrid="false"
     fit-margin-top="0"
     fit-margin-left="0"
     fit-margin-right="0"
     fit-margin-bottom="0"
     inkscape:zoom="4.1857143"
     inkscape:cx="77.53334"
     inkscape:cy="21.061471"
     inkscape:window-x="0"
     inkscape:window-y="0"
     inkscape:window-maximized="1"
     inkscape:current-layer="svg90" />
  <g
     class="lines"
     id="g88"
     style="fill:none;fill-rule:evenodd;stroke:currentColor;stroke-width:1"
     transform="translate(0.12719693,0.12426517)">
    <path
       class="st17"
       d="m 66.650936,11.871251 c 1.267242,0 2.310847,1.167825 2.037438,2.385346 -0.124217,0.546641 0.02461,0.944196 0.273409,1.366607 2.584156,4.24889 5.168195,8.497789 7.752344,12.746691 0.472137,0.770294 0.472137,0.770294 0.969023,0.0249 3.975547,-6.013043 7.951167,-12.026092 11.926795,-18.039148 0.546535,-0.8199683 0.546535,-0.8199683 1.391412,-0.273324 0.148977,0.09939 0.29815,0.223622 0.472131,0.298167 0.447372,0.223619 0.447372,0.49695 0.173883,0.894503 -1.018724,1.490839 -1.987757,3.006533 -2.981701,4.52222 -3.677357,5.540975 -7.329945,11.081921 -11.00734,16.622928 -0.546649,0.844804 -0.546649,0.844804 -1.093311,-0.04973 -3.130707,-5.168289 -6.286362,-10.361297 -9.417124,-15.529559 -0.29809,-0.496932 -0.621207,-0.869641 -1.217512,-1.068424 -0.944236,-0.298168 -1.490857,-1.316918 -1.292101,-2.236261 0.198833,-0.969048 1.018737,-1.664776 2.012654,-1.664776 z m 1.14299,2.062327 c 0,-0.646024 -0.472088,-1.118133 -1.093288,-1.118133 -0.621255,0 -1.093277,0.447265 -1.118109,1.093292 -0.02481,0.646044 0.447201,1.118125 1.093133,1.118125 0.621262,0 1.093412,-0.472081 1.118264,-1.093284 z"
       id="logo-b"
       inkscape:connector-curvature="0"
       style="fill:none;stroke:#1a5da8;stroke-width:0.24847358" />
    <path
       class="st18"
       d="m 59.76815,17.85947 c 0.04965,-0.124221 0.07454,-0.149088 0.07454,-0.173944 0.09952,-0.347856 -0.173904,-0.844802 0.248529,-1.018737 0.472106,-0.198773 1.018784,-0.149083 1.515692,-0.02475 0.372709,0.07448 0.298191,0.447239 0.298191,0.720576 0,2.037473 0.02442,4.074993 0,6.137275 -0.02473,2.012639 0.09934,4.02522 -0.124215,6.062765 -0.273317,2.733176 -2.1369,4.497336 -4.894993,4.571892 -1.341745,0.0497 -2.633785,-0.04975 -3.80158,-0.745439 -1.018792,-0.62116 -1.565432,-1.515682 -1.664799,-2.708286 -0.04971,-0.447272 0.0745,-0.745437 0.621212,-0.596367 0.322996,0.07448 0.645997,0.12424 0.96898,0.149095 0.347828,0.0246 0.546635,0.198781 0.621211,0.546643 0.198795,0.745384 0.745432,1.167787 1.490865,1.341739 0.745422,0.198771 1.490826,0.198771 2.236037,0.04958 1.143144,-0.223528 1.863771,-0.944115 2.112248,-2.087056 0.149105,-0.695741 0.124273,-1.391472 0.09936,-2.087168 -0.248457,-0.07455 -0.322985,0.09939 -0.44722,0.198739 -2.285854,1.739364 -5.391891,1.217553 -6.957241,-1.16781 -1.789064,-2.708347 -1.515673,-6.982077 0.571444,-9.118964 1.838888,-1.888395 4.696183,-2.012648 6.683931,-0.298177 0.09938,0.02485 0.198834,0.124251 0.347823,0.248484 z m -6.460225,4.82044 c -0.02446,0.819903 0.04954,1.63987 0.298184,2.410129 0.397511,1.217509 1.465961,2.062344 2.683478,2.136889 1.267211,0.07451 2.48478,-0.546662 2.956838,-1.739336 0.745424,-1.813831 0.795082,-3.677418 0,-5.466415 -0.521723,-1.167851 -1.515723,-1.813837 -2.857454,-1.76415 -1.341743,0.04969 -2.161516,0.770249 -2.683629,1.913241 -0.347818,0.81996 -0.422276,1.639906 -0.397417,2.509642 z"
       id="letter-g"
       inkscape:connector-curvature="0"
       style="fill:none;stroke:#413f41;stroke-width:0.24847358" />
    <path
       class="st18"
       d="m 14.670236,17.958846 c 2.136875,-2.608957 6.584565,-1.88839 7.951167,1.341792 0.993893,2.360477 1.018737,4.745816 -0.07452,7.106333 -1.018735,2.211385 -3.428924,3.404086 -5.615486,2.882325 -0.745441,-0.173983 -1.366642,-0.596396 -1.938109,-1.093343 -0.273314,0.198791 -0.149088,0.447279 -0.149088,0.646053 0,1.416346 -0.02485,2.807925 0,4.224063 0.02478,0.646023 -0.248467,0.844819 -0.869648,0.844819 -1.416305,0 -1.416305,0.02483 -1.416305,-1.416342 V 17.561303 c 0,-0.323026 -0.173928,-0.795116 0.273317,-0.919353 0.521821,-0.149089 1.118141,-0.223621 1.565379,0.04969 0.397564,0.248482 0.07451,0.819961 0.273325,1.26721 z m 6.336099,4.646443 c 0.0248,-0.745396 -0.0497,-1.689597 -0.44727,-2.559245 -0.496942,-1.068432 -1.267198,-1.813855 -2.484738,-1.888422 -1.24238,-0.09938 -2.161709,0.521796 -2.708359,1.540554 -1.068429,2.037484 -1.118127,4.174344 -0.124234,6.211809 0.993864,2.012658 3.602858,2.112073 4.91978,0.298184 0.770267,-0.993895 0.844821,-2.186548 0.844821,-3.60288 z"
       id="letter-p"
       inkscape:connector-curvature="0"
       style="fill:none;stroke:#413f41;stroke-width:0.24847358" />
    <path
       d="M 100.71683,16.31893 C 99.896691,16.517706 99.474391,16.070456 99.076748,15.449273 96.49264,11.498522 93.858783,7.5974857 91.249829,3.6716117 c -0.248472,-0.372702 -0.372596,-0.397553 -0.621182,0 -3.35445,5.09372 -6.733625,10.1874253 -10.112813,15.2811543 -0.198834,0.298165 -0.27335,0.596307 -0.198834,0.993883 0.273293,1.292062 -0.496955,2.385403 -1.739354,2.584121 -1.09328,0.173957 -2.186592,-0.670877 -2.335635,-1.764152 -0.149112,-1.242392 0.646032,-2.236278 1.938052,-2.360504 0.47214,-0.04972 0.646068,-0.323014 0.84487,-0.646037 3.776818,-5.690049 7.528707,-11.4049443 11.305608,-17.09498825 0.09929,-0.149085 0.198792,-0.323015 0.32297,-0.472102 0.198775,-0.273312 0.372701,-0.248466 0.546666,0.02482 0.09933,0.149092 0.22362,0.298176 0.322953,0.472106 3.255046,4.87007495 6.510167,9.76502325 9.76501,14.65994725 0.17396,0.273316 0.62128,0.571474 0.42243,0.894494 -0.17396,0.273327 -0.67084,0.02481 -0.99374,0.07453 z m -21.344014,4.074965 c 0,-0.621158 -0.447346,-1.068433 -1.04358,-1.093257 -0.59658,-0.02474 -1.167837,0.571456 -1.142972,1.167802 0.02515,0.596328 0.496886,1.018708 1.11807,1.018708 0.670911,0.02465 1.068482,-0.397509 1.068482,-1.093253 z"
       id="logo-g"
       inkscape:connector-curvature="0"
       style="fill:none;stroke:#376a4b;stroke-width:0.24847358" />
    <path
       class="st17"
       d="m 114.03484,22.828953 c 0,1.465986 -0.0251,2.907081 0.12428,4.348261 0.0494,0.47211 0.12423,0.944184 0.32276,1.366592 0.22385,0.472127 0.0497,0.596383 -0.39721,0.571507 -0.2734,0 -0.57151,-0.0245 -0.84489,0 -0.67091,0.07451 -1.01881,-0.198758 -1.11809,-0.86963 -0.0752,-0.546645 -0.24859,-0.571508 -0.69566,-0.248485 -1.71458,1.292098 -3.6279,1.714466 -5.71507,1.093268 -1.51555,-0.447234 -2.38525,-1.490874 -2.53436,-3.056247 -0.12431,-1.416263 0.49691,-2.534406 1.7145,-3.329492 1.14305,-0.745448 2.4847,-0.770284 3.77665,-0.969067 0.82013,-0.149056 1.6649,-0.298178 2.48482,-0.447186 0.5715,-0.09948 0.69575,-0.422477 0.62131,-0.969076 -0.19883,-1.366632 -0.79529,-1.987839 -2.1867,-2.087209 -0.4969,-0.02481 -0.99387,-0.02481 -1.46618,0 -1.06819,0.04966 -1.8634,0.546623 -2.18633,1.565362 -0.19881,0.646054 -0.59615,0.720576 -1.16779,0.621215 -1.36671,-0.248498 -1.41644,-0.298181 -0.79524,-1.56544 0.39754,-0.869616 1.04362,-1.515656 1.91333,-1.888363 1.86353,-0.819967 3.80168,-0.844811 5.71498,-0.323013 1.59014,0.447267 2.36048,1.56539 2.41003,3.230144 0.0495,1.043598 0.0246,2.01265 0.0246,2.956859 z m -2.26096,1.217501 c 0.0246,-1.043583 0.0246,-1.043583 -0.99411,-0.795099 -0.47206,0.124235 -0.96892,0.198787 -1.44096,0.298153 -0.84497,0.17391 -1.71455,0.223602 -2.53459,0.521744 -0.79502,0.298254 -1.21742,0.89455 -1.21742,1.714552 0,0.795117 0.44735,1.465942 1.24231,1.689539 2.26117,0.596421 5.06889,-0.472024 4.94477,-3.428889 z"
       id="letter-a"
       inkscape:connector-curvature="0"
       style="fill:none;stroke:#1a5da8;stroke-width:0.24847358" />
    <path
       class="st17"
       d="m 134.01208,23.499813 h -3.65246 c -0.96911,0 -0.99379,0.0243 -0.79512,0.99391 0.47209,2.285901 2.41027,3.503475 4.5719,2.857475 0.91938,-0.27335 1.54054,-0.894521 1.91325,-1.739325 0.22366,-0.546655 0.57154,-0.695717 1.0932,-0.571528 0.0747,0.02468 0.14918,0.02468 0.19883,0.02468 1.36659,0.223654 1.39144,0.248471 0.7703,1.490808 -0.99401,1.962979 -3.23013,3.081092 -5.54093,2.80777 -3.47863,-0.422396 -5.39199,-2.584182 -5.41678,-6.112461 -0.0245,-1.888358 0.27334,-3.677412 1.61511,-5.118548 1.68949,-1.813851 3.82646,-2.161711 6.08735,-1.490829 2.28612,0.695727 3.37943,2.459874 3.75216,4.745854 0.0753,0.447221 0.0993,0.894489 0.12423,1.341738 0.0496,0.546637 -0.17389,0.770261 -0.72051,0.745377 -1.36668,0 -2.68356,0.02466 -4.00053,0.02466 z m -1.16767,-1.863482 c 0.91936,0 1.83878,-0.0247 2.75797,0 0.57148,0.02454 0.74546,-0.198849 0.62123,-0.770334 -0.37268,-1.689631 -1.5654,-2.633808 -3.32948,-2.60897 -1.6649,0.0249 -2.95699,1.118126 -3.25515,2.758117 -0.0994,0.496924 0.0994,0.621187 0.54671,0.621187 z"
       id="letter-e"
       inkscape:connector-curvature="0"
       style="fill:none;stroke:#1a5da8;stroke-width:0.24847358" />
    <path
       class="st18"
       d="m 4.9549195,16.418329 c 0.8945058,-0.0497 1.7890113,0.07451 2.6089669,0.422395 1.1429859,0.472092 1.8387129,1.316898 2.1120307,2.534429 0.074508,0.372714 0.02477,0.596374 -0.3975336,0.646024 -0.42243,0.04974 -0.8448261,0.124234 -1.2423965,0.198795 C 7.6881278,20.294502 7.588726,20.046044 7.5141962,19.797551 7.1414867,18.729107 6.3712195,18.30673 5.3027848,18.30673 c -0.5466483,0 -1.0932817,-0.04971 -1.615084,0.124229 -0.6460313,0.19879 -1.1926702,0.571481 -1.2175192,1.292068 -0.049689,0.770266 0.5218015,1.118123 1.1678266,1.316923 1.0187409,0.32305 2.0871692,0.596381 3.1059226,0.894493 0.3727105,0.09937 0.7702654,0.248453 1.1429796,0.372705 1.3417557,0.496953 2.2611076,1.341759 2.3356576,2.857465 0.09937,1.540541 -0.5466509,2.733196 -1.863562,3.478619 -2.0374835,1.143006 -4.1992033,1.118085 -6.2863826,0.09938 C 0.9047972,28.171081 0.33330776,27.077848 0.03513952,25.835465 0.01029211,25.736034 -0.01455524,25.611873 0.01029211,25.562141 0.40784995,24.990649 1.0787289,25.264009 1.625372,25.090039 c 0.2733204,-0.09939 0.4720991,0.0745 0.5714881,0.372558 0.8199647,1.938255 2.5344304,2.633991 4.5222151,1.863708 0.7454315,-0.298156 1.242379,-0.968996 1.2175399,-1.664797 C 7.8869268,24.891272 7.3651136,24.568276 6.7190752,24.369506 5.5015627,24.021621 4.2840406,23.698591 3.0665185,23.301032 1.0538814,22.630175 0.0599868,21.288474 0.28361299,19.698176 0.53208743,17.909155 1.998082,16.617096 4.0107179,16.468016 c 0.347869,-0.07447 0.6460312,-0.04966 0.9442016,-0.04966 z"
       id="letter-s"
       inkscape:connector-curvature="0"
       style="fill:none;stroke:#413f41;stroke-width:0.24847358" />
    <path
       class="st18"
       d="m 40.859375,17.958846 c 1.664782,-1.714459 3.578009,-1.962924 5.665185,-1.217515 1.292083,0.472105 1.987793,1.490858 2.136858,2.832613 0.298179,3.006512 0.07443,6.01304 0.124245,9.019623 0,0.372689 -0.173946,0.571531 -0.546642,0.571531 h -0.149075 c -1.813852,0 -1.565386,0.149041 -1.590203,-1.515774 v -6.559685 c -0.02487,-1.789001 -0.69573,-2.608967 -2.261131,-2.75808 -1.465991,-0.14908 -2.857388,0.869636 -3.155613,2.310794 -0.12422,0.521851 -0.173945,1.068492 -0.173945,1.615075 0,2.037511 0,4.074971 0.02463,6.137316 0,0.571512 -0.198711,0.770354 -0.770236,0.770354 -1.51565,0 -1.51565,0.0247 -1.51565,-1.46606 V 17.561303 c 0,-0.323026 -0.124265,-0.795116 0.322961,-0.894514 0.521797,-0.124237 1.118139,-0.223621 1.590263,0.07448 0.397557,0.223632 0.07455,0.770269 0.298133,1.217521 z"
       id="letter-n"
       inkscape:connector-curvature="0"
       style="fill:none;stroke:#413f41;stroke-width:0.24847358" />
    <path
       class="st17"
       d="m 145.69043,26.282724 c 0.96898,-3.031369 2.11201,-5.913677 3.15563,-8.820813 0.27333,-0.770266 1.51561,-1.217524 2.23626,-0.819961 0.32295,0.173926 0.12418,0.397551 0.0495,0.596327 -1.19279,3.205328 -2.38548,6.41063 -3.60298,9.615896 -0.59636,1.565421 -1.16771,3.130847 -1.81372,4.646483 -0.79527,1.888452 -2.01276,2.683519 -3.70242,2.534442 -0.86957,-0.07451 -1.5405,-1.21751 -1.16779,-2.012633 0.0993,-0.248469 0.29822,-0.19885 0.47209,-0.173937 0.44728,0.04965 0.89457,0.0994 1.34177,0 0.42252,-0.09938 0.8199,-0.298156 1.04359,-0.670839 0.57158,-1.043613 1.04358,-2.0375 0.49701,-3.354485 -1.41644,-3.453698 -2.6836,-6.957207 -4.02548,-10.43583 -0.27325,-0.695729 -0.19864,-0.795109 0.49708,-0.795109 1.81385,0 1.49092,-0.198782 2.06246,1.416291 0.94403,2.658721 1.9631,5.267642 2.80762,7.97601 0,0.07451 0.0496,0.14913 0.14909,0.298158 z"
       id="letter-y"
       inkscape:connector-curvature="0"
       style="fill:none;stroke:#1a5da8;stroke-width:0.24847358" />
    <path
       class="st17"
       d="m 96.51741,26.083918 c 0.472245,-1.26719 0.919341,-2.53441 1.391507,-3.801628 0.571439,-1.590235 1.192714,-3.155612 1.714558,-4.770691 0.223536,-0.695723 0.571445,-1.043583 1.316765,-0.944202 0.19886,0.02479 0.42246,0 0.62129,0 0.47197,-0.02484 0.64597,0.149091 0.44718,0.621199 -1.44114,3.801632 -2.882199,7.603272 -4.323307,11.404971 -0.124317,0.347864 -0.347904,0.546622 -0.745526,0.521746 -0.248418,0 -0.521828,-0.0245 -0.770279,0 -0.521773,0.0498 -0.795113,-0.173882 -0.993843,-0.670855 -1.09331,-2.932005 -2.211339,-5.839169 -3.329675,-8.746282 -0.32295,-0.84485 -0.620959,-1.664772 -0.944126,-2.50958 -0.173905,-0.422409 -0.07467,-0.621199 0.397553,-0.621199 h 0.07466 c 1.614992,-0.09938 1.614992,-0.09938 2.136895,1.416313 0.919279,2.584113 1.814034,5.168254 2.73319,7.777225 0.07445,0.12426 0.07445,0.248473 0.273277,0.322983 z"
       id="letter-v"
       inkscape:connector-curvature="0"
       style="fill:none;stroke:#1a5da8;stroke-width:0.24847358" />
    <path
       class="st17"
       d="m 119.4018,20.542982 c 0,2.559287 -0.0252,5.118526 0.0244,7.677832 0,0.695741 -0.17386,0.969053 -0.9194,0.944284 -1.36656,-0.02479 -1.36656,0 -1.36656,-1.39158 V 13.138463 c 0,-1.21751 0,-1.21751 1.24242,-1.21751 h 0.27339 c 0.54652,-0.04974 0.74539,0.198767 0.74539,0.745406 -0.0246,1.962944 0,3.950737 0,5.913705 v 1.962918 z"
       id="letter-l1"
       inkscape:connector-curvature="0"
       style="fill:none;stroke:#1a5da8;stroke-width:0.24847358" />
    <path
       class="st18"
       d="m 27.665387,18.157622 c 1.441176,-1.863541 2.584156,-2.186559 4.19922,-1.416291 0.422424,0.198794 0.596381,0.42241 0.34787,0.86964 -0.0497,0.09941 -0.07449,0.223636 -0.12423,0.323029 -0.372703,1.018766 -0.372703,1.018766 -1.441147,0.795107 -1.143,-0.223632 -2.037471,0.273333 -2.435034,1.391478 -0.298174,0.869643 -0.397567,1.788989 -0.397567,2.708368 -0.0249,1.838684 -0.0249,3.652581 0,5.491236 0,0.621242 -0.198772,0.82 -0.819969,0.82 -1.391448,0 -1.391448,0.02481 -1.391448,-1.366671 V 17.486752 c 0,-0.919355 0.02487,-0.9442 0.944205,-0.9442 1.043588,0 1.06844,0 1.093307,0.9442 0.02493,0.198774 0.02493,0.347855 0.02493,0.67087 z"
       id="letter-r"
       inkscape:connector-curvature="0"
       style="fill:none;stroke:#413f41;stroke-width:0.24847358" />
    <path
       class="st17"
       d="m 122.45813,20.46844 v -7.603285 c 0,-0.944202 0.0244,-0.944202 0.94426,-0.944202 0.17391,0 0.32292,0.02482 0.49694,0 0.54666,-0.04974 0.7454,0.173923 0.7454,0.745406 -0.0244,1.490844 0,3.006536 0,4.497382 v 10.982523 c 0,0.969049 -0.0244,0.993925 -0.96914,0.993925 -1.19253,0 -1.19253,0 -1.19253,-1.192752 -0.0246,-2.48484 -0.0246,-4.994281 -0.0246,-7.478997 z"
       id="letter-l2"
       inkscape:connector-curvature="0"
       style="fill:none;stroke:#1a5da8;stroke-width:0.24847358" />
    <path
       class="st18"
       d="m 35.715957,22.903505 c 0,1.83868 -0.02482,3.652543 0,5.491239 0,0.571512 -0.198798,0.770354 -0.770263,0.770354 -1.515693,0 -1.515693,0.0247 -1.515693,-1.46606 V 17.561303 c 0,-0.944207 0.04973,-0.969038 0.993901,-0.993906 h 0.422402 c 0.621182,-0.04967 0.869653,0.173934 0.869653,0.844807 -0.02482,1.813884 0,3.652564 0,5.491301 z"
       id="letter-i"
       inkscape:connector-curvature="0"
       style="fill:none;stroke:#413f41;stroke-width:0.24847358" />
    <path
       class="st18"
       d="m 35.691099,13.237851 v 0.770276 c 0,0.173936 -0.04973,0.347872 -0.24842,0.397556 -0.571515,0.124233 -1.16791,0.09938 -1.739335,0 -0.173958,-0.02485 -0.248491,-0.198781 -0.248491,-0.372712 -0.0249,-0.223632 -0.0249,-0.472096 -0.0249,-0.695737 0,-1.465983 0,-1.441141 1.466037,-1.441141 0.596296,0 0.894474,0.173935 0.81994,0.795127 -0.0249,0.173935 0,0.372698 -0.0249,0.546631 0.0249,0 0,0 0,0 z"
       id="letter-i-dot"
       inkscape:connector-curvature="0"
       style="fill:none;stroke:#413f41;stroke-width:0.24847358" />
  </g>
</svg>
